<?xml version="1.0" encoding="UTF-8" standalone="no"?>
<svg
   width="340"
   height="400"
   viewBox="0 0 63.5 105.833"
   version="1.1"
   id="svg62"
   xmlns="http://www.w3.org/2000/svg"
   xmlns:svg="http://www.w3.org/2000/svg">
  <defs
     id="defs8">
    <clipPath
       clipPathUnits="userSpaceOnUse"
       id="b">
      <circle
         style="fill:#f4f4f3;fill-opacity:1;stroke:none;stroke-width:2;stroke-linecap:round;stroke-linejoin:round;stroke-dasharray:none;stroke-dashoffset:2;stroke-opacity:1"
         cx="540.667"
         cy="448.2"
         r="50"
         id="circle2" />
    </clipPath>
    <filter
       style="color-interpolation-filters:sRGB;"
       id="filter2714"
       x="-0.23820028"
       y="-0.32027647"
       width="1.4764006"
       height="1.6627944">
      <feFlood
         id="feFlood1072"
         flood-opacity="0.294118"
         flood-color="rgb(255,247,255)"
         result="flood" />
      <feComposite
         id="feComposite1074"
         operator="out"
         result="composite1"
         in2="flood" />
      <feGaussianBlur
         id="feGaussianBlur1076"
         stdDeviation="1.5"
         result="blur" />
      <feFlood
         flood-opacity="1"
         flood-color="#88d1f4"
         result="flood"
         id="feFlood2704" />
      <feComposite
         in2="SourceGraphic"
         operator="in"
         result="composite1"
         id="feComposite2706" />
      <feGaussianBlur
         in="composite1"
         stdDeviation="4.5"
         result="blur"
         id="feGaussianBlur2708" />
      <feOffset
         dx="0"
         dy="0"
         result="offset"
         id="feOffset2710" />
      <feComposite
         in="SourceGraphic"
         operator="over"
         result="fbSourceGraphic"
         id="feComposite2712"
         in2="offset" />
      <feOffset
         id="feOffset1078"
         dx="0"
         dy="1"
         result="offset" />
      <feColorMatrix
         result="fbSourceGraphicAlpha"
         values="0 0 0 -1 0 0 0 0 -1 0 0 0 0 -1 0 0 0 0 1 0"
         id="feColorMatrix1070" />
      <feComposite
         in2="fbSourceGraphic"
         id="feComposite1080"
         operator="atop"
         result="composite2"
         in="offset" />
    </filter>
  </defs>
  <path
     style="stroke-width:4.03022;marker:none;fill:#666666;fill-opacity:0.34901962"
     d="m 31.750001,30.435922 c -11.498223,0 -22.0372528,4.477576 -30.2266638,11.840792 l 5.1627143,5.791429 C 13.988814,41.66815 21.73087,38.496366 31.754032,38.496366 c 10.019131,0 17.410558,2.982364 25.059919,9.696713 l 5.162715,-5.920395 C 53.795315,34.913498 43.252255,30.435922 31.750001,30.435922 Z"
     id="path2" />
  <path
     id="path4"
     style="fill:#4db8ff;fill-opacity:1;stroke-width:4.03022;marker:none;filter:url(#filter2714)"
     d="m 31.750001,62.677697 c -3.562716,0 -7.113341,1.922416 -8.564221,3.526444 l 8.564221,9.192936 8.564222,-9.192936 c -1.45088,-1.684633 -5.001505,-3.526444 -8.564222,-3.526444 z m 0,-16.120888 c -7.44785,0 -14.162199,3.022667 -19.647331,7.556666 l 5.416618,5.666492 c 3.651381,-2.615614 9.26548,-5.162714 13.98084,-5.162714 4.828206,0 10.776813,2.555161 14.480587,5.291682 L 51.52227,53.984508 C 46.041168,49.458569 39.197852,46.556809 31.750001,46.556809 Z" />
</svg>
