<?xml version="1.0" encoding="UTF-8" standalone="no"?>
<!-- Credit: MATE icon theme -->
<svg
   width="340"
   height="400"
   viewBox="0 0 63.5 105.833"
   version="1.1"
   id="svg62"
   sodipodi:docname="padlock.svg"
   inkscape:version="1.1.2 (0a00cf5339, 2022-02-04)"
   xmlns:inkscape="http://www.inkscape.org/namespaces/inkscape"
   xmlns:sodipodi="http://sodipodi.sourceforge.net/DTD/sodipodi-0.dtd"
   xmlns:xlink="http://www.w3.org/1999/xlink"
   xmlns="http://www.w3.org/2000/svg"
   xmlns:svg="http://www.w3.org/2000/svg">
  <sodipodi:namedview
     id="namedview1642"
     pagecolor="#505050"
     bordercolor="#ffffff"
     borderopacity="1"
     inkscape:pageshadow="0"
     inkscape:pageopacity="0"
     inkscape:pagecheckerboard="1"
     showgrid="false"
     inkscape:zoom="1.645"
     inkscape:cx="133.1307"
     inkscape:cy="200"
     inkscape:window-width="2560"
     inkscape:window-height="1379"
     inkscape:window-x="0"
     inkscape:window-y="30"
     inkscape:window-maximized="1"
     inkscape:current-layer="svg62" />
  <defs
     id="defs8">
    <clipPath
       clipPathUnits="userSpaceOnUse"
       id="b">
      <circle
         style="fill:#f4f4f3;fill-opacity:1;stroke:none;stroke-width:2;stroke-linecap:round;stroke-linejoin:round;stroke-dasharray:none;stroke-dashoffset:2;stroke-opacity:1"
         cx="540.667"
         cy="448.2"
         r="50"
         id="circle2" />
    </clipPath>
    <filter
       style="color-interpolation-filters:sRGB;"
       id="filter2714"
       x="-0.2"
       y="-0.14558202"
       width="1.4"
       height="1.3214936">
      <feFlood
         flood-opacity="0.29999999999999999"
         flood-color="rgb(0,0,0)"
         result="flood"
         id="feFlood2704" />
      <feComposite
         in="flood"
         in2="SourceGraphic"
         operator="in"
         result="composite1"
         id="feComposite2706" />
      <feGaussianBlur
         in="composite1"
         stdDeviation="2"
         result="blur"
         id="feGaussianBlur2708" />
      <feOffset
         dx="0"
         dy="1"
         result="offset"
         id="feOffset2710" />
      <feComposite
         in="SourceGraphic"
         in2="offset"
         operator="over"
         result="composite2"
         id="feComposite2712" />
    </filter>
    <linearGradient
       inkscape:collect="always"
       xlink:href="#linearGradient3977"
       id="linearGradient3983"
       x1="48"
       y1="36"
       x2="56.96875"
       y2="36"
       gradientUnits="userSpaceOnUse"
       spreadMethod="reflect" />
    <linearGradient
       id="linearGradient3977">
      <stop
         style="stop-color:#cbcbcb;stop-opacity:1"
         offset="0"
         id="stop3979" />
      <stop
         style="stop-color:#efefef;stop-opacity:1"
         offset="1"
         id="stop3981" />
    </linearGradient>
    <linearGradient
       inkscape:collect="always"
       xlink:href="#linearGradient4005"
       id="linearGradient4011"
       x1="39.03125"
       y1="35.984375"
       x2="47.230457"
       y2="24.974846"
       gradientUnits="userSpaceOnUse" />
    <linearGradient
       inkscape:collect="always"
       id="linearGradient4005">
      <stop
         style="stop-color:#000000;stop-opacity:1;"
         offset="0"
         id="stop4007" />
      <stop
         style="stop-color:#000000;stop-opacity:0;"
         offset="1"
         id="stop4009" />
    </linearGradient>
    <linearGradient
       inkscape:collect="always"
       xlink:href="#linearGradient4005"
       id="linearGradient4039"
       x1="56.727566"
       y1="37.282234"
       x2="48.758419"
       y2="23.479269"
       gradientUnits="userSpaceOnUse" />
    <linearGradient
       inkscape:collect="always"
       xlink:href="#linearGradient3956"
       id="linearGradient3933"
       x1="48"
       y1="41"
       x2="60"
       y2="41"
       gradientUnits="userSpaceOnUse"
       spreadMethod="reflect" />
    <linearGradient
       id="linearGradient3956">
      <stop
         id="stop3958"
         offset="0"
         style="stop-color:#e6c94c;stop-opacity:1;" />
      <stop
         style="stop-color:#e7ce5f;stop-opacity:1"
         offset="0.57832253"
         id="stop3966" />
      <stop
         style="stop-color:#f0de93;stop-opacity:1"
         offset="0.83333331"
         id="stop3960" />
      <stop
         id="stop3962"
         offset="0.91666669"
         style="stop-color:#d0b64c;stop-opacity:1" />
      <stop
         id="stop3964"
         offset="1"
         style="stop-color:#907d2e;stop-opacity:1" />
    </linearGradient>
    <linearGradient
       inkscape:collect="always"
       xlink:href="#linearGradient3956"
       id="linearGradient3945"
       gradientUnits="userSpaceOnUse"
       spreadMethod="reflect"
       x1="48"
       y1="41"
       x2="60"
       y2="41"
       gradientTransform="translate(0,6)" />
    <linearGradient
       inkscape:collect="always"
       xlink:href="#linearGradient3956"
       id="linearGradient3954"
       gradientUnits="userSpaceOnUse"
       gradientTransform="translate(0,12)"
       spreadMethod="reflect"
       x1="48"
       y1="41"
       x2="60"
       y2="41" />
  </defs>
  <g
     id="g214"
     transform="matrix(2.095167,0,0,1.9707422,-68.818016,-22.839629)"
     style="display:inline;filter:url(#filter2714)">
    <path
       sodipodi:nodetypes="ssssssssssssss"
       inkscape:connector-curvature="0"
       id="path3974"
       d="m 48,23.03125 c -4.9531,0 -8.96875,4.01565 -8.96875,8.96875 v 8 c 0,4.9531 4.01565,8.96875 8.96875,8.96875 4.9531,0 8.96875,-4.01565 8.96875,-8.96875 v -8 c 0,-4.9531 -4.01565,-8.96875 -8.96875,-8.96875 z m 0,3 c 3.349468,0 5.96875,2.619282 5.96875,5.96875 v 8 c 0,3.349468 -2.619282,5.96875 -5.96875,5.96875 -3.349468,0 -5.96875,-2.619282 -5.96875,-5.96875 v -8 c 0,-3.349468 2.619282,-5.96875 5.96875,-5.96875 z"
       style="color:#000000;display:inline;overflow:visible;visibility:visible;fill:url(#linearGradient3983);fill-opacity:1;fill-rule:nonzero;stroke:none;stroke-width:2;marker:none;enable-background:accumulate" />
    <path
       inkscape:connector-curvature="0"
       id="rect3985"
       d="m 48,25 c -3.878,0 -7,3.122 -7,7 v 12 c 0,0.661889 0.11112,1.300171 0.28125,1.90625 1.643856,1.874098 4.03012,3.0625 6.71875,3.0625 2.68863,0 5.074894,-1.188402 6.71875,-3.0625 C 54.88888,45.300171 55,44.661889 55,44 V 32 c 0,-3.878 -3.122,-7 -7,-7 z m 0,1.03125 c 3.349468,0 5.96875,2.619282 5.96875,5.96875 v 8 c 0,3.349468 -2.619282,5.96875 -5.96875,5.96875 -3.349468,0 -5.96875,-2.619282 -5.96875,-5.96875 v -8 c 0,-3.349468 2.619282,-5.96875 5.96875,-5.96875 z"
       style="color:#000000;display:inline;overflow:visible;visibility:visible;opacity:0.1;fill:#000000;fill-opacity:1;fill-rule:nonzero;stroke:none;stroke-width:2;marker:none;enable-background:accumulate" />
    <path
       transform="matrix(0.95522388,0,0,0.9875956,2.1492537,0.60355158)"
       id="path3993"
       style="color:#000000;display:inline;overflow:visible;visibility:visible;opacity:0.2;fill:#000000;fill-opacity:1;fill-rule:nonzero;stroke:none;stroke-width:2;marker:none;enable-background:accumulate"
       inkscape:original="M 48 25 C 44.122 25 41 28.122 41 32 L 41 44 C 41 44.661889 41.11112 45.300171 41.28125 45.90625 C 42.925106 47.780348 45.31137 48.96875 48 48.96875 C 50.68863 48.96875 53.074894 47.780348 54.71875 45.90625 C 54.88888 45.300171 55 44.661889 55 44 L 55 32 C 55 28.122 51.878 25 48 25 z M 48 26.03125 C 51.349468 26.03125 53.96875 28.650532 53.96875 32 L 53.96875 40 C 53.96875 43.349468 51.349468 45.96875 48 45.96875 C 44.650532 45.96875 42.03125 43.349468 42.03125 40 L 42.03125 32 C 42.03125 28.650532 44.650532 26.03125 48 26.03125 z "
       inkscape:radius="-0.32651302"
       sodipodi:type="inkscape:offset"
       d="m 48,25.326172 c -3.70276,0 -6.673828,2.971068 -6.673828,6.673828 v 12 c 0,0.599785 0.105202,1.181874 0.257812,1.744141 1.583676,1.774077 3.85154,2.898437 6.416016,2.898437 2.564476,0 4.83234,-1.12436 6.416016,-2.898437 C 54.568626,45.181874 54.673828,44.599785 54.673828,44 V 32 c 0,-3.70276 -2.971068,-6.673828 -6.673828,-6.673828 z m 0,0.378906 c 3.51969,0 6.294922,2.775232 6.294922,6.294922 v 8 c 0,3.51969 -2.775232,6.294922 -6.294922,6.294922 -3.51969,0 -6.294922,-2.775232 -6.294922,-6.294922 v -8 c 0,-3.51969 2.775232,-6.294922 6.294922,-6.294922 z" />
    <path
       inkscape:connector-curvature="0"
       id="path3995"
       d="m 48,23.03125 c -4.9531,0 -8.96875,4.01565 -8.96875,8.96875 v 8 c 0,4.803463 3.785443,8.704923 8.53125,8.9375 C 43.040099,48.485235 39.5,44.69729 39.5,40.125 V 32.25 c 0,-4.87711 4.01565,-8.8125 8.96875,-8.8125 1.961522,0 3.773702,0.604265 5.25,1.65625 C 52.168406,23.814278 50.166981,23.03125 48,23.03125 Z m 3.84375,4.34375 c 1.310757,1.085979 2.125,2.749544 2.125,4.625 v 8 c 0,3.349468 -2.619282,5.96875 -5.96875,5.96875 -0.178019,0 -0.35764,-0.01674 -0.53125,-0.03125 0.324528,0.05172 0.658264,0.0625 1,0.0625 3.349468,0 5.96875,-2.57692 5.96875,-5.875 V 32.25 c 0,-2.061301 -1.008641,-3.829535 -2.59375,-4.875 z"
       style="color:#000000;display:inline;overflow:visible;visibility:visible;opacity:0.2;fill:url(#linearGradient4011);fill-opacity:1;fill-rule:nonzero;stroke:none;stroke-width:2;marker:none;enable-background:accumulate" />
    <path
       sodipodi:nodetypes="ssccscs"
       inkscape:connector-curvature="0"
       id="path4013"
       d="m 48,23.03125 c -4.9531,0 -8.96875,4.01565 -8.96875,8.96875 v 8 h 0.78125 v -8 c 0,-4.814493 3.801349,-8.752635 8.5625,-8.96875 -0.126641,-0.0053 -0.247055,0 -0.375,0 z"
       style="color:#000000;display:inline;overflow:visible;visibility:visible;opacity:0.1;fill:#000000;fill-opacity:1;fill-rule:nonzero;stroke:none;stroke-width:2;marker:none;enable-background:accumulate" />
    <path
       inkscape:connector-curvature="0"
       id="path4024"
       d="m 48,23.03125 c -0.170961,0 -0.331399,0.02181 -0.5,0.03125 4.716118,0.2641 8.46875,4.155361 8.46875,8.9375 v 8 c 0,4.782139 -3.752632,8.6734 -8.46875,8.9375 0.168601,0.0094 0.329039,0.03125 0.5,0.03125 4.9531,0 8.96875,-4.01565 8.96875,-8.96875 v -8 c 0,-4.9531 -4.01565,-8.96875 -8.96875,-8.96875 z m -1,3 c -3.349468,0 -5.96875,2.619282 -5.96875,5.96875 v 8 c 0,3.349468 2.619282,5.96875 5.96875,5.96875 0.125814,0 0.251347,-0.02396 0.375,-0.03125 C 44.32736,45.637471 42.03125,43.140126 42.03125,40 v -8 c 0,-3.140126 2.29611,-5.637471 5.34375,-5.9375 C 47.251347,26.0552 47.125814,26.03125 47,26.03125 Z"
       style="color:#000000;display:inline;overflow:visible;visibility:visible;opacity:0.15;fill:url(#linearGradient4039);fill-opacity:1;fill-rule:nonzero;stroke:none;stroke-width:2;marker:none;enable-background:accumulate" />
    <path
       inkscape:connector-curvature="0"
       id="path4041"
       d="m 47.75,23.03125 c 4.820388,0.151447 8.6875,4.111609 8.6875,8.96875 v 8 c 0,4.857141 -3.867112,8.817303 -8.6875,8.96875 0.08472,0.0024 0.164703,0 0.25,0 4.9531,0 8.96875,-4.01565 8.96875,-8.96875 v -8 c 0,-4.9531 -4.01565,-8.96875 -8.96875,-8.96875 -0.0853,0 -0.165275,-0.0024 -0.25,0 z m -0.28125,3 C 44.119282,26.03125 41.5,28.650532 41.5,32 v 8 c 0,3.349468 2.619282,5.96875 5.96875,5.96875 0.09397,0 0.188472,0.0041 0.28125,0 C 44.520715,45.842516 42.03125,43.26594 42.03125,40 v -8 c 0,-3.26594 2.489465,-5.842516 5.71875,-5.96875 -0.09278,-0.0041 -0.187281,0 -0.28125,0 z"
       style="color:#000000;display:inline;overflow:visible;visibility:visible;opacity:0.2;fill:#000000;fill-opacity:1;fill-rule:nonzero;stroke:none;stroke-width:2;marker:none;enable-background:accumulate" />
    <path
       sodipodi:nodetypes="ccccccccccccccccccccccccccccccccccccccccccccccccccccccccccccccccccccc"
       inkscape:connector-curvature="0"
       id="rect4052"
       d="M 47.96875,24.5 48.75,24.53125 h 0.03125 l 0.71875,0.125 h 0.03125 l 0.6875,0.1875 H 50.25 l 0.65625,0.21875 0.03125,0.03125 0.625,0.28125 0.03125,0.03125 0.59375,0.34375 0.03125,0.03125 0.15625,0.125 L 52.84375,26 53.15625,25.65625 53.0625,25.1875 52.96875,25.125 52.78125,24.96875 52.75,24.9375 52.09375,24.53125 52.03125,24.5 51.34375,24.1875 51.28125,24.15625 50.5625,23.875 H 50.5 l -0.75,-0.1875 -0.0625,-0.03125 -0.78125,-0.125 h -0.0625 L 48.03125,23.5 c -0.956312,-0.06672 -1.152251,1.088959 -0.0625,1 z m -4,0 -0.0625,0.03125 -0.65625,0.40625 -0.03125,0.03125 -0.625,0.4375 L 42.5625,25.4375 42,25.96875 41.96875,26 l -0.53125,0.5625 -0.03125,0.03125 -0.4375,0.625 -0.03125,0.03125 -0.40625,0.65625 -0.03125,0.0625 -0.28125,0.625 V 29.0625 L 40.625,29.3125 41.0625,29.125 41.125,29 41.375,28.4375 41.40625,28.40625 41.75,27.8125 41.78125,27.78125 42.1875,27.25 l 0.03125,-0.03125 0.46875,-0.5 h 0.03125 V 26.6875 l 0.5,-0.46875 L 43.25,26.1875 43.78125,25.78125 43.8125,25.75 44.40625,25.40625 44.4375,25.375 45.03125,25.125 C 45.742924,24.657964 45,24 44.59375,24.21875 Z"
       style="color:#000000;font-style:normal;font-variant:normal;font-weight:normal;font-stretch:normal;font-size:medium;line-height:normal;font-family:Sans;-inkscape-font-specification:Sans;text-indent:0;text-align:start;text-decoration:none;text-decoration-line:none;letter-spacing:normal;word-spacing:normal;text-transform:none;writing-mode:lr-tb;direction:ltr;baseline-shift:baseline;text-anchor:start;display:inline;overflow:visible;visibility:visible;opacity:0.3;fill:#ffffff;fill-opacity:1;stroke:none;stroke-width:1;marker:none;enable-background:accumulate" />
    <path
       id="path4061"
       style="color:#000000;font-style:normal;font-variant:normal;font-weight:normal;font-stretch:normal;font-size:medium;line-height:normal;font-family:Sans;-inkscape-font-specification:Sans;text-indent:0;text-align:start;text-decoration:none;text-decoration-line:none;letter-spacing:normal;word-spacing:normal;text-transform:none;writing-mode:lr-tb;direction:ltr;baseline-shift:baseline;text-anchor:start;display:inline;overflow:visible;visibility:visible;opacity:0.6;fill:#ffffff;fill-opacity:1;stroke:none;stroke-width:1;marker:none;enable-background:accumulate"
       inkscape:original="M 48.03125 23.5 C 47.074938 23.43328 46.878999 24.588959 47.96875 24.5 L 48.75 24.53125 L 48.78125 24.53125 L 49.5 24.65625 L 49.53125 24.65625 L 50.21875 24.84375 L 50.25 24.84375 L 50.90625 25.0625 L 50.9375 25.09375 L 51.5625 25.375 L 51.59375 25.40625 L 52.1875 25.75 L 52.21875 25.78125 L 52.375 25.90625 L 52.84375 26 L 53.15625 25.65625 L 53.0625 25.1875 L 52.96875 25.125 L 52.78125 24.96875 L 52.75 24.9375 L 52.09375 24.53125 L 52.03125 24.5 L 51.34375 24.1875 L 51.28125 24.15625 L 50.5625 23.875 L 50.5 23.875 L 49.75 23.6875 L 49.6875 23.65625 L 48.90625 23.53125 L 48.84375 23.53125 L 48.03125 23.5 z M 44.59375 24.21875 L 43.96875 24.5 L 43.90625 24.53125 L 43.25 24.9375 L 43.21875 24.96875 L 42.59375 25.40625 L 42.5625 25.4375 L 42 25.96875 L 41.96875 26 L 41.4375 26.5625 L 41.40625 26.59375 L 40.96875 27.21875 L 40.9375 27.25 L 40.53125 27.90625 L 40.5 27.96875 L 40.21875 28.59375 L 40.21875 29.0625 L 40.625 29.3125 L 41.0625 29.125 L 41.125 29 L 41.375 28.4375 L 41.40625 28.40625 L 41.75 27.8125 L 41.78125 27.78125 L 42.1875 27.25 L 42.21875 27.21875 L 42.6875 26.71875 L 42.71875 26.71875 L 42.71875 26.6875 L 43.21875 26.21875 L 43.25 26.1875 L 43.78125 25.78125 L 43.8125 25.75 L 44.40625 25.40625 L 44.4375 25.375 L 45.03125 25.125 C 45.742924 24.657964 45 24 44.59375 24.21875 z "
       inkscape:radius="-0.19488198"
       sodipodi:type="inkscape:offset"
       d="m 48.017578,23.695312 c -0.3993,-0.02786 -0.573944,0.187024 -0.591797,0.335938 -0.0089,0.07446 0.0105,0.132508 0.08008,0.1875 0.06958,0.05499 0.20846,0.107385 0.447266,0.08789 a 0.19490146,0.19490146 0 0 1 0.02344,-0.002 l 0.777344,0.03125 h 0.02734 a 0.19490146,0.19490146 0 0 1 0.0332,0.0039 l 0.703125,0.121094 h 0.01367 a 0.19490146,0.19490146 0 0 1 0.05078,0.0078 l 0.66211,0.179688 H 50.25 a 0.19490146,0.19490146 0 0 1 0.0625,0.0098 l 0.65625,0.21875 a 0.19490146,0.19490146 0 0 1 0.07617,0.04687 l 0.0059,0.0078 0.591797,0.265625 a 0.19490146,0.19490146 0 0 1 0.05859,0.03906 l 0.01172,0.01367 0.572265,0.332031 a 0.19490146,0.19490146 0 0 1 0.04102,0.0293 l 0.02344,0.02539 0.109375,0.08789 0.314454,0.0625 0.171874,-0.189453 -0.05859,-0.292968 -0.02539,-0.01758 a 0.19490146,0.19490146 0 0 1 -0.01758,-0.01172 l -0.1875,-0.15625 a 0.19490146,0.19490146 0 0 1 -0.01367,-0.01172 l -0.01367,-0.01563 -0.630859,-0.390625 -0.05078,-0.02539 -0.683594,-0.310547 a 0.19490146,0.19490146 0 0 1 -0.0078,-0.0039 l -0.05469,-0.02734 -0.675781,-0.263672 H 50.5 a 0.19490146,0.19490146 0 0 1 -0.04687,-0.0059 l -0.75,-0.1875 a 0.19490146,0.19490146 0 0 1 -0.04102,-0.01563 l -0.03516,-0.01758 -0.736328,-0.117188 h -0.04687 a 0.19490146,0.19490146 0 0 1 -0.0078,0 l -0.8125,-0.03125 a 0.19490146,0.19490146 0 0 1 -0.0059,0 z m -3.144531,0.691407 c -0.0768,-0.02538 -0.143675,-0.01969 -0.1875,0.0039 a 0.19490146,0.19490146 0 0 1 -0.01172,0.0059 l -0.621094,0.279297 -0.05078,0.02539 -0.630859,0.390625 -0.01367,0.01563 a 0.19490146,0.19490146 0 0 1 -0.02734,0.02148 l -0.611328,0.427735 -0.01758,0.01953 a 0.19490146,0.19490146 0 0 1 -0.0039,0.0039 l -0.560547,0.529297 -0.02734,0.02734 -0.529297,0.560547 a 0.19490146,0.19490146 0 0 1 -0.0039,0.0039 l -0.01953,0.01758 -0.427735,0.611328 a 0.19490146,0.19490146 0 0 1 -0.02148,0.02734 l -0.01563,0.01367 -0.390625,0.630859 -0.02539,0.05078 -0.261719,0.582032 v 0.318359 l 0.226563,0.140625 0.279297,-0.119141 0.0293,-0.05859 0.248047,-0.558594 a 0.19490146,0.19490146 0 0 1 0.03906,-0.05859 l 0.01367,-0.01172 0.332031,-0.572265 a 0.19490146,0.19490146 0 0 1 0.0293,-0.04102 l 0.02344,-0.02148 0.398437,-0.521485 a 0.19490146,0.19490146 0 0 1 0.01563,-0.01953 l 0.0293,-0.02734 0.466797,-0.498046 a 0.19490146,0.19490146 0 0 1 0.0293,-0.01172 0.19490146,0.19490146 0 0 1 0.01172,-0.0293 l 0.498046,-0.466797 0.02734,-0.0293 a 0.19490146,0.19490146 0 0 1 0.01953,-0.01563 l 0.521485,-0.398437 0.02148,-0.02344 a 0.19490146,0.19490146 0 0 1 0.04102,-0.0293 L 44.287109,25.25 l 0.01172,-0.01367 a 0.19490146,0.19490146 0 0 1 0.0625,-0.04102 l 0.56836,-0.240234 c 0.13686,-0.09302 0.187452,-0.175773 0.199218,-0.236328 0.01214,-0.06247 -0.005,-0.124279 -0.05273,-0.1875 -0.04771,-0.06322 -0.126323,-0.119152 -0.203125,-0.144531 z" />
    <rect
       ry="1"
       rx="1"
       y="38"
       x="36"
       height="6"
       width="24"
       id="rect3138"
       style="color:#000000;display:inline;overflow:visible;visibility:visible;fill:url(#linearGradient3933);fill-opacity:1;fill-rule:nonzero;stroke:none;stroke-width:2;marker:none;enable-background:accumulate" />
    <path
       inkscape:connector-curvature="0"
       id="rect3148"
       d="m 37,38 c -0.554,0 -1,0.446 -1,1 v 1 c 0,-0.554 0.446,-1 1,-1 h 22 c 0.554,0 1,0.446 1,1 v -1 c 0,-0.554 -0.446,-1 -1,-1 z"
       style="color:#000000;display:inline;overflow:visible;visibility:visible;opacity:0.3;fill:#ffffff;fill-opacity:1;fill-rule:nonzero;stroke:none;stroke-width:2;marker:none;enable-background:accumulate" />
    <path
       inkscape:connector-curvature="0"
       id="rect3921"
       d="m 36,42 v 1 c 0,0.554 0.446,1 1,1 h 22 c 0.554,0 1,-0.446 1,-1 v -1 c 0,0.554 -0.446,1 -1,1 H 37 c -0.554,0 -1,-0.446 -1,-1 z"
       style="color:#000000;display:inline;overflow:visible;visibility:visible;opacity:0.15;fill:#a05a2c;fill-opacity:1;fill-rule:nonzero;stroke:none;stroke-width:2;marker:none;enable-background:accumulate" />
    <rect
       style="color:#000000;display:inline;overflow:visible;visibility:visible;fill:url(#linearGradient3945);fill-opacity:1;fill-rule:nonzero;stroke:none;stroke-width:2;marker:none;enable-background:accumulate"
       id="rect3939"
       width="24"
       height="6"
       x="36"
       y="44"
       rx="1"
       ry="1" />
    <path
       inkscape:connector-curvature="0"
       style="color:#000000;display:inline;overflow:visible;visibility:visible;opacity:0.3;fill:#ffffff;fill-opacity:1;fill-rule:nonzero;stroke:none;stroke-width:2;marker:none;enable-background:accumulate"
       d="m 37,44 c -0.554,0 -1,0.446 -1,1 v 1 c 0,-0.554 0.446,-1 1,-1 h 22 c 0.554,0 1,0.446 1,1 v -1 c 0,-0.554 -0.446,-1 -1,-1 z"
       id="path3941" />
    <path
       inkscape:connector-curvature="0"
       style="color:#000000;display:inline;overflow:visible;visibility:visible;opacity:0.15;fill:#a05a2c;fill-opacity:1;fill-rule:nonzero;stroke:none;stroke-width:2;marker:none;enable-background:accumulate"
       d="m 36,48 v 1 c 0,0.554 0.446,1 1,1 h 22 c 0.554,0 1,-0.446 1,-1 v -1 c 0,0.554 -0.446,1 -1,1 H 37 c -0.554,0 -1,-0.446 -1,-1 z"
       id="path3943" />
    <rect
       ry="1"
       rx="1"
       y="50"
       x="36"
       height="6"
       width="24"
       id="rect3947"
       style="color:#000000;display:inline;overflow:visible;visibility:visible;fill:url(#linearGradient3954);fill-opacity:1;fill-rule:nonzero;stroke:none;stroke-width:2;marker:none;enable-background:accumulate" />
    <path
       id="path3949"
       d="m 37,50 c -0.554,0 -1,0.446 -1,1 v 1 c 0,-0.554 0.446,-1 1,-1 h 22 c 0.554,0 1,0.446 1,1 v -1 c 0,-0.554 -0.446,-1 -1,-1 z"
       style="color:#000000;display:inline;overflow:visible;visibility:visible;opacity:0.3;fill:#ffffff;fill-opacity:1;fill-rule:nonzero;stroke:none;stroke-width:2;marker:none;enable-background:accumulate"
       inkscape:connector-curvature="0" />
    <path
       id="path3952"
       d="m 36,54 v 1 c 0,0.554 0.446,1 1,1 h 22 c 0.554,0 1,-0.446 1,-1 v -1 c 0,0.554 -0.446,1 -1,1 H 37 c -0.554,0 -1,-0.446 -1,-1 z"
       style="color:#000000;display:inline;overflow:visible;visibility:visible;opacity:0.15;fill:#a05a2c;fill-opacity:1;fill-rule:nonzero;stroke:none;stroke-width:2;marker:none;enable-background:accumulate"
       inkscape:connector-curvature="0" />
  </g>
</svg>
